<?xml version="1.0" encoding="UTF-8" standalone="no"?>
<svg
   width="508.779"
   height="82.326"
   viewBox="0 0 134.61 21.782"
   version="1.1"
   id="svg28"
   sodipodi:docname="importmap-laravel-logo.svg"
   inkscape:version="1.1.1 (3bf5ae0d25, 2021-09-20)"
   xmlns:inkscape="http://www.inkscape.org/namespaces/inkscape"
   xmlns:sodipodi="http://sodipodi.sourceforge.net/DTD/sodipodi-0.dtd"
   xmlns="http://www.w3.org/2000/svg"
   xmlns:svg="http://www.w3.org/2000/svg">
  <defs
     id="defs32" />
  <sodipodi:namedview
     id="namedview30"
     pagecolor="#ffffff"
     bordercolor="#666666"
     borderopacity="1.0"
     inkscape:pageshadow="2"
     inkscape:pageopacity="0.0"
     inkscape:pagecheckerboard="0"
     showgrid="false"
     inkscape:zoom="1.4564281"
     inkscape:cx="252.32965"
     inkscape:cy="22.658173"
     inkscape:window-width="1920"
     inkscape:window-height="1016"
     inkscape:window-x="960"
     inkscape:window-y="27"
     inkscape:window-maximized="1"
     inkscape:current-layer="svg28" />
  <path
     id="text6"
     style="line-height:1.25;stroke:#ffffff;stroke-width:10.7895;stroke-linecap:butt;stroke-linejoin:round;stroke-miterlimit:4;stroke-dasharray:none;paint-order:stroke fill markers"
     d="M 428.55078 25.505859 L 425.33203 26.060547 L 425.33203 47.658203 C 425.33203 49.365831 425.74739 50.623979 426.57812 51.431641 C 427.40886 52.239302 428.81624 52.666739 430.80078 52.712891 L 431.25195 50.013672 C 430.74428 49.944444 430.31684 49.863789 429.9707 49.771484 C 429.62456 49.656104 429.34636 49.492841 429.13867 49.285156 C 428.93099 49.077472 428.78176 48.801219 428.68945 48.455078 C 428.59715 48.108937 428.55078 47.671374 428.55078 47.140625 L 428.55078 25.505859 z M 131.66602 28.378906 L 131.66602 52.367188 L 137.06641 52.367188 L 137.06641 28.378906 L 131.66602 28.378906 z M 322.42383 28.378906 L 322.42383 52.367188 L 336.85938 52.367188 L 336.85938 49.458984 L 325.7832 49.458984 L 325.7832 28.378906 L 322.42383 28.378906 z M 233.60547 28.794922 L 228.44727 29.625 L 228.44727 44.923828 C 228.44727 46.100707 228.55208 47.175337 228.75977 48.144531 C 228.99053 49.113725 229.38172 49.944437 229.93555 50.636719 C 230.48937 51.305924 231.2293 51.836223 232.15234 52.228516 C 233.07539 52.597732 234.23885 52.78125 235.64648 52.78125 C 236.75413 52.78125 237.68966 52.690468 238.45117 52.505859 C 239.21268 52.321251 239.90429 52.101493 240.52734 51.847656 L 239.80078 47.832031 C 239.31618 48.01664 238.77381 48.16587 238.17383 48.28125 C 237.59693 48.373554 237.03234 48.419922 236.47852 48.419922 C 235.32471 48.419922 234.5505 48.097301 234.1582 47.451172 C 233.78899 46.805043 233.60547 45.940043 233.60547 44.855469 L 233.60547 38.451172 L 239.80078 38.451172 L 239.80078 34.160156 L 233.60547 34.160156 L 233.60547 28.794922 z M 201.10352 33.675781 C 199.81126 33.675781 198.6096 33.905667 197.50195 34.367188 C 196.41738 34.828708 195.47172 35.475903 194.66406 36.306641 C 193.87948 37.137378 193.25644 38.139528 192.79492 39.316406 C 192.35648 40.493285 192.13672 41.797801 192.13672 43.228516 C 192.13672 44.659231 192.35648 45.973874 192.79492 47.173828 C 193.23337 48.350707 193.84432 49.366889 194.62891 50.220703 C 195.41349 51.051441 196.34902 51.696682 197.43359 52.158203 C 198.54124 52.619724 199.7651 52.851562 201.10352 52.851562 C 202.465 52.851563 203.68691 52.619724 204.77148 52.158203 C 205.87913 51.696682 206.82479 51.051441 207.60938 50.220703 C 208.39396 49.366889 208.99479 48.350707 209.41016 47.173828 C 209.82553 45.973874 210.0332 44.659231 210.0332 43.228516 C 210.0332 41.797801 209.81344 40.493285 209.375 39.316406 C 208.93656 38.139528 208.3256 37.137378 207.54102 36.306641 C 206.75643 35.475903 205.81078 34.828708 204.70312 34.367188 C 203.61855 33.905667 202.41885 33.675781 201.10352 33.675781 z M 280.36914 33.675781 C 279.76916 33.675781 279.16834 33.710069 278.56836 33.779297 C 277.99146 33.825449 277.43895 33.894024 276.9082 33.986328 C 276.37745 34.055556 275.87949 34.148292 275.41797 34.263672 C 274.97952 34.355976 274.61054 34.448711 274.31055 34.541016 L 274.96875 38.693359 C 275.5918 38.462599 276.32978 38.291161 277.18359 38.175781 C 278.03741 38.037325 278.90436 37.966797 279.78125 37.966797 C 281.09658 37.966797 282.01808 38.232923 282.54883 38.763672 C 283.07958 39.294421 283.3457 39.99811 283.3457 40.875 L 283.3457 41.359375 C 283.02264 41.267071 282.5952 41.198496 282.06445 41.152344 C 281.55678 41.083116 280.96803 41.046875 280.29883 41.046875 C 279.30656 41.046875 278.34882 41.151691 277.42578 41.359375 C 276.50274 41.543983 275.68411 41.856477 274.96875 42.294922 C 274.25339 42.733367 273.67673 43.32016 273.23828 44.058594 C 272.82291 44.797027 272.61523 45.698267 272.61523 46.759766 C 272.61523 47.867416 272.80071 48.80099 273.16992 49.5625 C 273.53914 50.32401 274.06944 50.947044 274.76172 51.431641 C 275.454 51.893162 276.27263 52.227862 277.21875 52.435547 C 278.18794 52.643231 279.26062 52.748047 280.4375 52.748047 C 282.30666 52.748047 283.89951 52.631151 285.21484 52.400391 C 286.53018 52.192706 287.55649 52.009189 288.29492 51.847656 L 288.29492 41.117188 C 288.29492 39.986461 288.1679 38.960151 287.91406 38.037109 C 287.66023 37.114067 287.22266 36.329723 286.59961 35.683594 C 285.99963 35.037464 285.19113 34.5395 284.17578 34.193359 C 283.16044 33.847219 281.89216 33.675781 280.36914 33.675781 z M 149.73633 33.744141 C 149.06712 33.744141 148.38564 33.778428 147.69336 33.847656 C 147.00108 33.893808 146.3196 33.974464 145.65039 34.089844 C 145.00426 34.182148 144.38123 34.299044 143.78125 34.4375 C 143.20435 34.55288 142.69821 34.667823 142.25977 34.783203 L 142.25977 52.367188 L 147.41602 52.367188 L 147.41602 38.3125 C 147.73908 38.266348 148.07378 38.23206 148.41992 38.208984 C 148.76606 38.162832 149.10076 38.140625 149.42383 38.140625 C 150.46225 38.140625 151.1901 38.485453 151.60547 39.177734 C 152.04391 39.870016 152.26172 41.047509 152.26172 42.708984 L 152.26172 52.367188 L 157.41992 52.367188 L 157.41992 42.431641 C 157.41992 41.762435 157.39576 41.139401 157.34961 40.5625 C 157.30346 39.962523 157.20059 39.397937 157.03906 38.867188 C 157.36213 38.659503 157.7654 38.486113 158.25 38.347656 C 158.75767 38.2092 159.15082 38.140625 159.42773 38.140625 C 160.46616 38.140625 161.19205 38.485453 161.60742 39.177734 C 162.04587 39.870016 162.26562 41.047509 162.26562 42.708984 L 162.26562 52.367188 L 167.42383 52.367188 L 167.42383 42.085938 C 167.42383 40.839831 167.31901 39.708705 167.11133 38.693359 C 166.90364 37.678013 166.52258 36.800934 165.96875 36.0625 C 165.41492 35.324066 164.66487 34.75948 163.71875 34.367188 C 162.79571 33.951819 161.60809 33.744141 160.1543 33.744141 C 159.34664 33.744141 158.45748 33.893371 157.48828 34.193359 C 156.54216 34.493348 155.70132 34.908704 154.96289 35.439453 C 154.43214 34.977932 153.75066 34.586737 152.91992 34.263672 C 152.11226 33.917531 151.05166 33.744141 149.73633 33.744141 z M 179.53906 33.744141 C 178.91601 33.744141 178.25673 33.778428 177.56445 33.847656 C 176.89525 33.893808 176.22585 33.964336 175.55664 34.056641 C 174.91051 34.148945 174.28748 34.263887 173.6875 34.402344 C 173.08752 34.517724 172.55722 34.644747 172.0957 34.783203 L 172.0957 58.769531 L 177.25391 58.769531 L 177.25391 51.916016 C 177.83081 52.169852 178.42968 52.367403 179.05273 52.505859 C 179.67579 52.644316 180.34519 52.712891 181.06055 52.712891 C 182.35281 52.712891 183.49601 52.481052 184.48828 52.019531 C 185.48055 51.55801 186.31126 50.912769 186.98047 50.082031 C 187.64967 49.251294 188.15777 48.259271 188.50391 47.105469 C 188.85005 45.951666 189.02148 44.671311 189.02148 43.263672 C 189.02148 41.809881 188.80368 40.493285 188.36523 39.316406 C 187.94987 38.139528 187.33696 37.147505 186.5293 36.339844 C 185.72164 35.509106 184.72961 34.875945 183.55273 34.4375 C 182.37586 33.975979 181.03901 33.744141 179.53906 33.744141 z M 251.4668 33.744141 C 250.79759 33.744141 250.11611 33.778428 249.42383 33.847656 C 248.73155 33.893808 248.05006 33.974464 247.38086 34.089844 C 246.73473 34.182148 246.1117 34.299044 245.51172 34.4375 C 244.93482 34.55288 244.42868 34.667823 243.99023 34.783203 L 243.99023 52.367188 L 249.14648 52.367188 L 249.14648 38.3125 C 249.46955 38.266348 249.80425 38.23206 250.15039 38.208984 C 250.49653 38.162832 250.83123 38.140625 251.1543 38.140625 C 252.19272 38.140625 252.92057 38.485453 253.33594 39.177734 C 253.77438 39.870016 253.99219 41.047509 253.99219 42.708984 L 253.99219 52.367188 L 259.15039 52.367188 L 259.15039 42.431641 C 259.15039 41.762435 259.12818 41.139401 259.08203 40.5625 C 259.03588 39.962523 258.93106 39.397937 258.76953 38.867188 C 259.0926 38.659503 259.49587 38.486113 259.98047 38.347656 C 260.48814 38.2092 260.88129 38.140625 261.1582 38.140625 C 262.19663 38.140625 262.92252 38.485453 263.33789 39.177734 C 263.77634 39.870016 263.99609 41.047509 263.99609 42.708984 L 263.99609 52.367188 L 269.1543 52.367188 L 269.1543 42.085938 C 269.1543 40.839831 269.04948 39.708705 268.8418 38.693359 C 268.63411 37.678013 268.25304 36.800934 267.69922 36.0625 C 267.14539 35.324066 266.39534 34.75948 265.44922 34.367188 C 264.52618 33.951819 263.33856 33.744141 261.88477 33.744141 C 261.0771 33.744141 260.18794 33.893371 259.21875 34.193359 C 258.27263 34.493348 257.43179 34.908704 256.69336 35.439453 C 256.16261 34.977932 255.48113 34.586737 254.65039 34.263672 C 253.84273 33.917531 252.78213 33.744141 251.4668 33.744141 z M 300.41016 33.744141 C 299.7871 33.744141 299.12978 33.778428 298.4375 33.847656 C 297.76829 33.893808 297.09889 33.964336 296.42969 34.056641 C 295.78356 34.148945 295.16052 34.263887 294.56055 34.402344 C 293.96057 34.517724 293.43027 34.644747 292.96875 34.783203 L 292.96875 58.769531 L 298.125 58.769531 L 298.125 51.916016 C 298.7019 52.169852 299.30273 52.367403 299.92578 52.505859 C 300.54883 52.644316 301.21824 52.712891 301.93359 52.712891 C 303.22585 52.712891 304.3671 52.481052 305.35938 52.019531 C 306.35165 51.55801 307.18236 50.912769 307.85156 50.082031 C 308.52077 49.251294 309.02886 48.259271 309.375 47.105469 C 309.72114 45.951666 309.89453 44.671311 309.89453 43.263672 C 309.89453 41.809881 309.67477 40.493285 309.23633 39.316406 C 308.82096 38.139528 308.21001 37.147505 307.40234 36.339844 C 306.59468 35.509106 305.60266 34.875945 304.42578 34.4375 C 303.2489 33.975979 301.9101 33.744141 300.41016 33.744141 z M 221.49023 33.779297 C 219.94414 33.779297 218.53676 33.928527 217.26758 34.228516 C 216.02147 34.505428 214.93671 34.805842 214.01367 35.128906 L 214.01367 52.367188 L 219.17188 52.367188 L 219.17188 38.451172 C 219.40264 38.381944 219.73734 38.325449 220.17578 38.279297 C 220.6373 38.210069 221.0285 38.175781 221.35156 38.175781 C 222.06692 38.175781 222.73632 38.244356 223.35938 38.382812 C 223.98243 38.498193 224.52481 38.613135 224.98633 38.728516 L 225.85156 34.470703 C 225.57465 34.355323 225.23995 34.262588 224.84766 34.193359 C 224.45536 34.101055 224.06417 34.03248 223.67188 33.986328 C 223.27958 33.9171 222.88643 33.870732 222.49414 33.847656 C 222.10185 33.801504 221.76715 33.779297 221.49023 33.779297 z M 345.99609 33.917969 C 344.86537 33.917969 343.81685 34.008751 342.84766 34.193359 C 341.87846 34.354892 341.1849 34.528282 340.76953 34.712891 L 341.15039 37.378906 C 341.54268 37.217374 342.13143 37.068144 342.91602 36.929688 C 343.72368 36.768155 344.6592 36.685547 345.7207 36.685547 C 346.55144 36.685547 347.22084 36.81257 347.72852 37.066406 C 348.25926 37.297167 348.67462 37.621741 348.97461 38.037109 C 349.2746 38.429402 349.48228 38.891126 349.59766 39.421875 C 349.71304 39.929548 349.76953 40.447767 349.76953 40.978516 L 349.76953 41.878906 C 349.67723 41.85583 349.51592 41.821543 349.28516 41.775391 C 349.0544 41.729239 348.77814 41.682871 348.45508 41.636719 C 348.15509 41.567491 347.83052 41.521123 347.48438 41.498047 C 347.13823 41.451895 346.80549 41.427734 346.48242 41.427734 C 345.46708 41.427734 344.49726 41.53255 343.57422 41.740234 C 342.65118 41.947919 341.84267 42.270539 341.15039 42.708984 C 340.45811 43.147429 339.9056 43.724096 339.49023 44.439453 C 339.09794 45.154811 338.90039 46.009683 338.90039 47.001953 C 338.90039 48.040375 339.07378 48.927582 339.41992 49.666016 C 339.76606 50.404449 340.24999 51.005276 340.87305 51.466797 C 341.4961 51.905242 342.23603 52.227862 343.08984 52.435547 C 343.94366 52.643231 344.87723 52.748047 345.89258 52.748047 C 346.60794 52.748047 347.32371 52.711806 348.03906 52.642578 C 348.7775 52.596426 349.45898 52.539931 350.08203 52.470703 C 350.70508 52.401475 351.25759 52.3329 351.74219 52.263672 C 352.24986 52.171368 352.64301 52.10084 352.91992 52.054688 L 352.91992 40.804688 C 352.91992 39.789341 352.80498 38.867847 352.57422 38.037109 C 352.34346 37.183296 351.95031 36.455446 351.39648 35.855469 C 350.86574 35.232415 350.14997 34.760565 349.25 34.4375 C 348.37311 34.091359 347.28835 33.917969 345.99609 33.917969 z M 377.42578 33.917969 C 376.29505 33.917969 375.24654 34.008751 374.27734 34.193359 C 373.30815 34.354892 372.61459 34.528282 372.19922 34.712891 L 372.58008 37.378906 C 372.97237 37.217374 373.56112 37.068144 374.3457 36.929688 C 375.15336 36.768155 376.08889 36.685547 377.15039 36.685547 C 377.98113 36.685547 378.64858 36.81257 379.15625 37.066406 C 379.687 37.297167 380.10236 37.621741 380.40234 38.037109 C 380.70233 38.429402 380.91001 38.891126 381.02539 39.421875 C 381.14077 39.929548 381.19922 40.447767 381.19922 40.978516 L 381.19922 41.878906 C 381.10691 41.85583 380.9456 41.821543 380.71484 41.775391 C 380.48408 41.729239 380.20783 41.682871 379.88477 41.636719 C 379.58478 41.567491 379.2602 41.521123 378.91406 41.498047 C 378.56792 41.451895 378.23322 41.427734 377.91016 41.427734 C 376.89481 41.427734 375.92695 41.53255 375.00391 41.740234 C 374.08086 41.947919 373.27236 42.270539 372.58008 42.708984 C 371.8878 43.147429 371.33529 43.724096 370.91992 44.439453 C 370.52763 45.154811 370.33008 46.009683 370.33008 47.001953 C 370.33008 48.040375 370.50347 48.927582 370.84961 49.666016 C 371.19575 50.404449 371.67968 51.005276 372.30273 51.466797 C 372.92579 51.905242 373.66572 52.227862 374.51953 52.435547 C 375.37334 52.643231 376.30692 52.748047 377.32227 52.748047 C 378.03762 52.748047 378.75339 52.711806 379.46875 52.642578 C 380.20718 52.596426 380.88867 52.539931 381.51172 52.470703 C 382.13477 52.401475 382.68728 52.3329 383.17188 52.263672 C 383.67955 52.171368 384.0727 52.10084 384.34961 52.054688 L 384.34961 40.804688 C 384.34961 39.789341 384.23467 38.867847 384.00391 38.037109 C 383.77315 37.183296 383.38 36.455446 382.82617 35.855469 C 382.29542 35.232415 381.57965 34.760565 380.67969 34.4375 C 379.8028 34.091359 378.71804 33.917969 377.42578 33.917969 z M 413.25195 33.917969 C 412.21353 33.917969 411.19735 34.113567 410.20508 34.505859 C 409.21281 34.898152 408.33573 35.486899 407.57422 36.271484 C 406.81271 37.05607 406.20176 38.048092 405.74023 39.248047 C 405.27871 40.424925 405.04883 41.810096 405.04883 43.402344 C 405.04883 44.763831 405.22222 46.020026 405.56836 47.173828 C 405.93758 48.304554 406.49008 49.28645 407.22852 50.117188 C 407.96695 50.947925 408.90248 51.605247 410.0332 52.089844 C 411.18701 52.551365 412.54802 52.78125 414.11719 52.78125 C 415.36329 52.78125 416.47026 52.666307 417.43945 52.435547 C 418.43172 52.204786 419.12529 51.985028 419.51758 51.777344 L 419.06641 49.078125 C 418.67411 49.262733 418.08537 49.458331 417.30078 49.666016 C 416.53927 49.850624 415.59362 49.943359 414.46289 49.943359 C 412.45527 49.943359 410.97932 49.459428 410.0332 48.490234 C 409.08709 47.52104 408.54471 46.101582 408.40625 44.232422 L 420.72852 44.232422 C 420.75159 44.047813 420.76367 43.852216 420.76367 43.644531 L 420.76367 43.089844 C 420.76367 39.997653 420.11648 37.701115 418.82422 36.201172 C 417.53196 34.678153 415.67494 33.917969 413.25195 33.917969 z M 364.89648 33.986328 C 363.48885 33.986328 362.21862 34.113351 361.08789 34.367188 C 359.95716 34.597948 359.01151 34.851994 358.25 35.128906 L 358.25 52.367188 L 361.46875 52.367188 L 361.46875 37.240234 C 361.65336 37.194082 362.03443 37.113427 362.61133 36.998047 C 363.21131 36.859591 363.81213 36.791016 364.41211 36.791016 C 365.33515 36.791016 366.08521 36.859591 366.66211 36.998047 C 367.26209 37.113427 367.68757 37.21629 367.94141 37.308594 L 368.49609 34.505859 C 368.35764 34.459707 368.13788 34.41334 367.83789 34.367188 C 367.56098 34.297959 367.25044 34.239511 366.9043 34.193359 C 366.55816 34.124131 366.19929 34.079717 365.83008 34.056641 C 365.48394 34.010489 365.1734 33.986328 364.89648 33.986328 z M 386.94531 34.367188 C 387.84528 37.73629 388.89575 40.966403 390.0957 44.058594 C 391.31873 47.150784 392.49427 49.921126 393.625 52.367188 L 396.5332 52.367188 C 397.66393 49.921126 398.82934 47.150784 400.0293 44.058594 C 401.25233 40.966403 402.31292 37.73629 403.21289 34.367188 L 399.89062 34.367188 C 399.61371 35.497914 399.27901 36.709694 398.88672 38.001953 C 398.5175 39.271136 398.11423 40.539411 397.67578 41.808594 C 397.26041 43.0547 396.83298 44.266481 396.39453 45.443359 C 395.95609 46.620238 395.54073 47.670708 395.14844 48.59375 C 394.75614 47.670708 394.34079 46.620238 393.90234 45.443359 C 393.4639 44.266481 393.02634 43.0547 392.58789 41.808594 C 392.17252 40.539411 391.76729 39.271136 391.375 38.001953 C 391.00578 36.709694 390.68316 35.497914 390.40625 34.367188 L 386.94531 34.367188 z M 413.2168 36.652344 C 414.53213 36.652344 415.55844 37.124195 416.29688 38.070312 C 417.05838 38.993354 417.42933 40.182928 417.40625 41.636719 L 408.47461 41.636719 C 408.54384 41.013665 408.68294 40.400758 408.89062 39.800781 C 409.12139 39.200804 409.43193 38.670505 409.82422 38.208984 C 410.21651 37.747463 410.69032 37.378475 411.24414 37.101562 C 411.82104 36.801574 412.47836 36.652344 413.2168 36.652344 z M 201.10352 38.105469 C 202.28039 38.105469 203.17968 38.567192 203.80273 39.490234 C 204.44886 40.3902 204.77148 41.636268 204.77148 43.228516 C 204.77148 44.820763 204.44886 46.089038 203.80273 47.035156 C 203.17968 47.958198 202.28039 48.419922 201.10352 48.419922 C 199.92664 48.419922 199.01332 47.958198 198.36719 47.035156 C 197.72106 46.089038 197.39844 44.820763 197.39844 43.228516 C 197.39844 41.636268 197.72106 40.3902 198.36719 39.490234 C 199.01332 38.567192 199.92664 38.105469 201.10352 38.105469 z M 179.50391 38.140625 C 180.91155 38.140625 181.97214 38.624556 182.6875 39.59375 C 183.40286 40.539868 183.76172 41.810096 183.76172 43.402344 C 183.76172 46.702219 182.53786 48.351562 180.0918 48.351562 C 179.56105 48.351563 179.03075 48.282988 178.5 48.144531 C 177.99233 48.006075 177.57697 47.832684 177.25391 47.625 L 177.25391 38.3125 C 177.50774 38.266348 177.83036 38.23206 178.22266 38.208984 C 178.61495 38.162832 179.04239 38.140625 179.50391 38.140625 z M 300.375 38.140625 C 301.78264 38.140625 302.84519 38.624556 303.56055 39.59375 C 304.2759 40.539868 304.63281 41.810096 304.63281 43.402344 C 304.63281 46.702219 303.4109 48.351562 300.96484 48.351562 C 300.43409 48.351563 299.90184 48.282988 299.37109 48.144531 C 298.86342 48.006075 298.44806 47.832684 298.125 47.625 L 298.125 38.3125 C 298.37884 38.266348 298.70341 38.23206 299.0957 38.208984 C 299.488 38.162832 299.91348 38.140625 300.375 38.140625 z M 346.75781 44.025391 C 347.49625 44.025391 348.11928 44.071758 348.62695 44.164062 C 349.1577 44.233291 349.53877 44.324073 349.76953 44.439453 L 349.76953 49.804688 C 349.37724 49.896992 348.88123 49.96752 348.28125 50.013672 C 347.70435 50.036748 347.03495 50.046875 346.27344 50.046875 C 345.00425 50.046875 344.00015 49.82907 343.26172 49.390625 C 342.52329 48.929104 342.1543 48.120599 342.1543 46.966797 C 342.1543 46.343744 342.30548 45.847732 342.60547 45.478516 C 342.90546 45.086223 343.27445 44.785809 343.71289 44.578125 C 344.17441 44.347365 344.67042 44.198134 345.20117 44.128906 C 345.755 44.059678 346.27322 44.025391 346.75781 44.025391 z M 378.1875 44.025391 C 378.92593 44.025391 379.54897 44.071758 380.05664 44.164062 C 380.58739 44.233291 380.96846 44.324073 381.19922 44.439453 L 381.19922 49.804688 C 380.80693 49.896992 380.31091 49.96752 379.71094 50.013672 C 379.13404 50.036748 378.46463 50.046875 377.70312 50.046875 C 376.43394 50.046875 375.42984 49.82907 374.69141 49.390625 C 373.95297 48.929104 373.58398 48.120599 373.58398 46.966797 C 373.58398 46.343744 373.73517 45.847732 374.03516 45.478516 C 374.33514 45.086223 374.70413 44.785809 375.14258 44.578125 C 375.6041 44.347365 376.10011 44.198134 376.63086 44.128906 C 377.18468 44.059678 377.7029 44.025391 378.1875 44.025391 z M 281.26953 44.509766 C 281.61567 44.509766 281.99479 44.531973 282.41016 44.578125 C 282.82553 44.624277 283.13802 44.670645 283.3457 44.716797 L 283.3457 48.628906 C 283.06879 48.675058 282.6998 48.709346 282.23828 48.732422 C 281.77676 48.755498 281.29088 48.767578 280.7832 48.767578 C 279.83709 48.767578 279.08898 48.616395 278.53516 48.316406 C 278.00441 47.993342 277.73828 47.428755 277.73828 46.621094 C 277.73828 46.205725 277.83102 45.858944 278.01562 45.582031 C 278.20023 45.305119 278.45428 45.08536 278.77734 44.923828 C 279.10041 44.762296 279.4694 44.659433 279.88477 44.613281 C 280.32321 44.544053 280.78493 44.509766 281.26953 44.509766 z "
     transform="matrix(0.26458228,0,0,0.26458228,-0.00195334,0)" />
  <path
     style="fill:#ffffff;stroke:#ffffff;stroke-width:1.1376;stroke-linecap:butt;stroke-linejoin:round;stroke-miterlimit:4;stroke-dasharray:none;paint-order:markers stroke fill"
     d="m 22.11359,8.7405901 a 5.3386905,5.752181 0 0 1 0.06726,3.0480599 c -0.156683,0.669533 -0.616797,1.653198 -1.013473,2.169105 a 5.4380505,5.8591841 0 0 1 -1.741093,1.482758 c -0.607625,0.325595 -1.452185,0.584695 -1.798416,0.551066 -0.183434,-0.01758 -0.112354,-0.08407 1.293973,-1.189263 2.054459,-1.614219 2.841697,-2.282224 2.996087,-2.541324 a 1.459828,1.5729456 0 0 0 0.171969,-0.544187 c 0.03822,-0.305724 0.02752,-0.340117 -0.179612,-0.638962 -0.26445,-0.382154 -0.39209,-0.434891 -1.146462,-0.477692 -0.321009,-0.01911 -0.720742,-0.04892 -0.886597,-0.0665 l -0.303431,-0.03286 0.389797,-0.351581 1.112832,-1.0111798 a 64.985277,64.985277 0 0 1 0.822395,-0.7413786 c 0.0879,-0.072609 0.110061,-0.038215 0.214771,0.3439385 z"
     id="path8" />
  <circle
     style="fill:#ffeeaa;fill-opacity:1;stroke:none;stroke-width:0.202224;stroke-miterlimit:4;stroke-dasharray:none;stroke-opacity:1"
     cx="21.516665"
     cy="10.792757"
     r="8.3240767"
     id="circle10" />
  <g
     style="fill:#ffffff;stroke:currentColor;stroke-width:0.999941;stroke-miterlimit:4;stroke-dasharray:none"
     id="g14"
     transform="matrix(0.76430787,0,0,0.76430787,12.253253,-0.30499351)">
    <path
       stroke-linecap="round"
       stroke-linejoin="round"
       stroke-width="2"
       d="M 9,20 3.553,17.276 A 1,1 0 0 1 3,16.382 V 5.618 A 1,1 0 0 1 4.447,4.724 L 9,7 m 0,13 6,-3 M 9,20 V 7 m 6,10 4.553,2.276 A 1,1 0 0 0 21,18.382 V 7.618 A 1,1 0 0 0 20.447,6.724 L 15,4 m 0,13 V 4 m 0,0 -6,3"
       style="fill:#ffffff;stroke-width:0.999941;stroke-miterlimit:4;stroke-dasharray:none"
       transform="matrix(0.68845,0,0,-0.52727,3.858,23.756)"
       id="path12" />
  </g>
  <g
     style="fill:#f7e018;fill-opacity:1;stroke:currentColor;stroke-width:2;stroke-miterlimit:4;stroke-dasharray:none"
     id="g18"
     transform="matrix(0.76430787,0,0,0.76430787,12.253253,-0.30499351)">
    <path
       stroke-linecap="round"
       stroke-linejoin="round"
       stroke-width="4.025"
       d="m 25.216,31.579 -8.54,8.54 a 4.021,4.021 0 0 1 -5.689,0 l -8.542,-8.54 a 16.101,16.101 0 1 1 22.771,0 z"
       style="fill:#f7e018;fill-opacity:1;stroke-width:2;stroke-miterlimit:4;stroke-dasharray:none"
       transform="matrix(0.26458,0,0,0.26458,8.813,5.715)"
       id="path16" />
  </g>
  <path
     id="text22"
     style="font-style:normal;font-weight:400;font-size:3.23558px;line-height:1.25;font-family:sans-serif;fill:#000000;fill-opacity:1;stroke:none;stroke-width:0.764314"
     d="M 85.199219 25.558594 C 84.718211 25.558594 84.287473 25.619897 83.904297 25.742188 C 83.521121 25.856325 83.19482 26.022065 82.925781 26.242188 C 82.656743 26.46231 82.447529 26.732827 82.300781 27.050781 C 82.154033 27.360583 82.082031 27.710234 82.082031 28.101562 C 82.082031 28.492891 82.150467 28.828278 82.289062 29.105469 C 82.427658 29.374507 82.608003 29.605117 82.828125 29.800781 C 83.048247 29.988293 83.295075 30.148854 83.572266 30.279297 C 83.849457 30.401587 84.127106 30.511543 84.404297 30.609375 C 85.040206 30.821345 85.489114 31.01952 85.75 31.207031 C 86.010886 31.38639 86.140625 31.615387 86.140625 31.892578 C 86.140625 32.023021 86.120841 32.142062 86.080078 32.248047 C 86.039315 32.354032 85.96536 32.44777 85.859375 32.529297 C 85.75339 32.602671 85.610999 32.663975 85.431641 32.712891 C 85.260434 32.753654 85.040523 32.773438 84.771484 32.773438 C 84.233408 32.773438 83.777367 32.719266 83.402344 32.613281 C 83.035473 32.499144 82.725389 32.37297 82.472656 32.234375 L 81.933594 33.751953 C 82.047731 33.817175 82.186556 33.88561 82.349609 33.958984 C 82.520816 34.032358 82.720944 34.102747 82.949219 34.167969 C 83.185646 34.23319 83.45421 34.285409 83.755859 34.326172 C 84.057508 34.375088 84.396461 34.400391 84.771484 34.400391 C 85.888401 34.400391 86.724915 34.184045 87.279297 33.751953 C 87.833679 33.311709 88.109375 32.695106 88.109375 31.904297 C 88.109375 31.496663 88.057157 31.150578 87.951172 30.865234 C 87.845187 30.579891 87.683013 30.33111 87.462891 30.119141 C 87.250921 29.907171 86.980404 29.72326 86.654297 29.568359 C 86.32819 29.405306 85.946104 29.243132 85.505859 29.080078 C 85.29389 29.006704 85.097328 28.938268 84.917969 28.873047 C 84.746763 28.799673 84.59172 28.722152 84.453125 28.640625 C 84.322682 28.550946 84.221812 28.451688 84.148438 28.345703 C 84.075063 28.239718 84.037109 28.109979 84.037109 27.955078 C 84.037109 27.694193 84.136367 27.503149 84.332031 27.380859 C 84.535848 27.250417 84.865716 27.183594 85.322266 27.183594 C 85.729899 27.183594 86.075985 27.234199 86.361328 27.332031 C 86.654824 27.421711 86.919822 27.526147 87.15625 27.648438 L 87.707031 26.144531 C 87.437993 25.997783 87.095474 25.864478 86.679688 25.742188 C 86.263901 25.619897 85.769906 25.558594 85.199219 25.558594 z M 78.71875 25.753906 L 78.71875 31.28125 C 78.71875 31.819327 78.615926 32.203366 78.412109 32.431641 C 78.208293 32.659916 77.874859 32.773438 77.410156 32.773438 C 77.092202 32.773438 76.798335 32.719266 76.529297 32.613281 C 76.260259 32.507296 76.007912 32.386642 75.771484 32.248047 L 75.134766 33.726562 C 75.395651 33.905921 75.725519 34.06453 76.125 34.203125 C 76.524481 34.333568 77.002259 34.400391 77.556641 34.400391 C 78.159939 34.400391 78.6575 34.32287 79.048828 34.167969 C 79.448309 34.004915 79.761959 33.78857 79.990234 33.519531 C 80.226662 33.24234 80.388836 32.919605 80.478516 32.552734 C 80.576348 32.185864 80.626953 31.794693 80.626953 31.378906 L 80.626953 25.753906 L 78.71875 25.753906 z "
     transform="matrix(0.26458228,0,0,0.26458228,-0.00195334,0)" />
  <path
     style="fill:#ffffff;fill-opacity:1;stroke:#ffffff;stroke-width:0.0759558;stroke-miterlimit:4;stroke-dasharray:none;stroke-opacity:1"
     d="m 21.4945,15.383189 -1.281744,-0.495271 v -3.382827 l 0.484571,0.476928 c 0.265979,0.262922 0.543423,0.508265 0.616797,0.544952 0.07261,0.03821 0.245342,0.07643 0.383682,0.0856 0.353875,0.02522 0.57476,-0.05579 0.864433,-0.318716 l 0.233114,-0.210185 v 1.901598 c 0,1.046338 -0.0046,1.90007 -0.0092,1.897777 z"
     id="path24" />
</svg>
