<svg width="508.779" height="82.326" viewBox="0 0 134.61 21.782" xmlns="http://www.w3.org/2000/svg"><text style="line-height:1.25;stroke:#fff;stroke-width:2.95513;stroke-linecap:butt;stroke-linejoin:round;stroke-miterlimit:4;stroke-dasharray:none;paint-order:stroke fill markers" x="39.24" y="13.941" stroke-width=".31" font-family="sans-serif" font-size="9.48" font-weight="400"><tspan x="39.24" y="13.941" style="-inkscape-font-specification:Ubuntu;stroke:#fff;stroke-width:2.95513;stroke-linecap:butt;stroke-linejoin:round;stroke-miterlimit:4;stroke-dasharray:none;paint-order:stroke fill markers" font-family="Ubuntu"><tspan style="font-weight:700;stroke-width:2.95513">Importmap</tspan> Laravel</tspan></text><g transform="matrix(.82065 0 0 .82065 9.214 -.987)"><path style="fill:#fff;stroke:#fff;stroke-width:1.4884;stroke-linecap:butt;stroke-linejoin:round;stroke-miterlimit:4;stroke-dasharray:none;paint-order:markers stroke fill" d="M12.901 11.835a6.985 7.526 0 0 1 .088 3.988c-.205.876-.807 2.163-1.326 2.838a7.115 7.666 0 0 1-2.278 1.94c-.795.426-1.9.765-2.353.721-.24-.023-.147-.11 1.693-1.556 2.688-2.112 3.718-2.986 3.92-3.325a1.91 2.058 0 0 0 .225-.712c.05-.4.036-.445-.235-.836-.346-.5-.513-.569-1.5-.625-.42-.025-.943-.064-1.16-.087l-.397-.043.51-.46 1.456-1.323a85.025 85.025 0 0 1 1.076-.97c.115-.095.144-.05.281.45z"/><circle style="opacity:.335932;fill:#008dff;fill-opacity:1;stroke:none;stroke-width:.264585;stroke-miterlimit:4;stroke-dasharray:none;stroke-opacity:1" cx="12.12" cy="14.52" r="10.891"/><g style="fill:#fff;stroke:currentColor;stroke-width:.999941;stroke-miterlimit:4;stroke-dasharray:none"><path stroke-linecap="round" stroke-linejoin="round" stroke-width="2" d="m9 20-5.447-2.724A1 1 0 0 1 3 16.382V5.618a1 1 0 0 1 1.447-.894L9 7m0 13 6-3m-6 3V7m6 10 4.553 2.276A1 1 0 0 0 21 18.382V7.618a1 1 0 0 0-.553-.894L15 4m0 13V4m0 0L9 7" style="fill:#fff;stroke-width:.999941;stroke-miterlimit:4;stroke-dasharray:none" transform="matrix(.68845 0 0 -.52727 3.858 23.756)"/></g><g style="fill:#fff;stroke:currentColor;stroke-width:2;stroke-miterlimit:4;stroke-dasharray:none"><path stroke-linecap="round" stroke-linejoin="round" stroke-width="4.025" d="m25.216 31.579-8.54 8.54a4.021 4.021 0 0 1-5.689 0l-8.542-8.54a16.101 16.101 0 1 1 22.771 0z" style="fill:#fff;stroke-width:2;stroke-miterlimit:4;stroke-dasharray:none" transform="translate(8.813 5.715) scale(.26458)"/></g><text xml:space="preserve" style="font-style:normal;font-weight:400;font-size:4.23335px;line-height:1.25;font-family:sans-serif;fill:#000;fill-opacity:1;stroke:none;stroke-width:.264585" x="1.8" y="12.656" transform="translate(8.133 -.408)"><tspan style="font-style:normal;font-variant:normal;font-weight:700;font-stretch:normal;font-size:4.23335px;font-family:Ubuntu;-inkscape-font-specification:'Ubuntu Bold';stroke-width:.264585" x="1.8" y="12.656">JS</tspan></text><path style="opacity:1;fill:#fff;fill-opacity:1;stroke:#fff;stroke-width:.375602;stroke-miterlimit:4;stroke-dasharray:none;stroke-opacity:1" d="m14.977 80.046-6.338-2.45v-16.73l2.394 2.361c1.317 1.299 2.69 2.512 3.05 2.695.361.184 1.216.375 1.9.424 1.748.125 2.84-.278 4.275-1.577l1.151-1.042v9.406c0 5.173-.02 9.396-.047 9.384-.025-.012-2.899-1.124-6.385-2.471z" transform="translate(8.128 -.653) scale(.26458)"/></g></svg>