<svg width="508.779" height="82.326" viewBox="0 0 134.61 21.782" xmlns="http://www.w3.org/2000/svg"><g transform="translate(-1.231 -3.629)"><text style="line-height:1.25;stroke:#fff;stroke-width:3.88391;stroke-linecap:butt;stroke-linejoin:round;stroke-miterlimit:4;stroke-dasharray:none;paint-order:stroke fill markers" x="25.064" y="18.516" stroke-width=".31" font-family="sans-serif" font-size="12.46" font-weight="400"><tspan x="25.064" y="18.516" style="-inkscape-font-specification:Ubuntu;stroke:#fff;stroke-width:3.88391;stroke-linecap:butt;stroke-linejoin:round;stroke-miterlimit:4;stroke-dasharray:none;paint-order:stroke fill markers" font-family="Ubuntu"><tspan style="font-weight:700">Importmap</tspan> Laravel</tspan></text><path style="fill:#fff;stroke:#fff;stroke-width:1.4884;stroke-linecap:butt;stroke-linejoin:round;stroke-miterlimit:4;stroke-dasharray:none;paint-order:markers stroke fill" d="M12.901 11.835a6.985 7.526 0 0 1 .088 3.988c-.205.876-.807 2.163-1.326 2.838a7.115 7.666 0 0 1-2.278 1.94c-.795.426-1.9.765-2.353.721-.24-.023-.147-.11 1.693-1.556 2.688-2.112 3.718-2.986 3.92-3.325a1.91 2.058 0 0 0 .225-.712c.05-.4.036-.445-.235-.836-.346-.5-.513-.569-1.5-.625-.42-.025-.943-.064-1.16-.087l-.397-.043.51-.46 1.456-1.323a85.025 85.025 0 0 1 1.076-.97c.115-.095.144-.05.281.45z"/><circle style="opacity:1;fill:#fea;fill-opacity:1;stroke:none;stroke-width:.264585;stroke-miterlimit:4;stroke-dasharray:none;stroke-opacity:1" cx="12.12" cy="14.52" r="10.891"/><g style="fill:#fff;stroke:currentColor;stroke-width:.999941;stroke-miterlimit:4;stroke-dasharray:none"><path stroke-linecap="round" stroke-linejoin="round" stroke-width="2" d="m9 20-5.447-2.724A1 1 0 0 1 3 16.382V5.618a1 1 0 0 1 1.447-.894L9 7m0 13 6-3m-6 3V7m6 10 4.553 2.276A1 1 0 0 0 21 18.382V7.618a1 1 0 0 0-.553-.894L15 4m0 13V4m0 0L9 7" style="fill:#fff;stroke-width:.999941;stroke-miterlimit:4;stroke-dasharray:none" transform="matrix(.68845 0 0 -.52727 3.858 23.756)"/></g><g style="fill:#f7e018;stroke:currentColor;stroke-width:2;stroke-miterlimit:4;stroke-dasharray:none;fill-opacity:1"><path stroke-linecap="round" stroke-linejoin="round" stroke-width="4.025" d="m25.216 31.579-8.54 8.54a4.021 4.021 0 0 1-5.689 0l-8.542-8.54a16.101 16.101 0 1 1 22.771 0z" style="fill:#f7e018;stroke-width:2;stroke-miterlimit:4;stroke-dasharray:none;fill-opacity:1" transform="matrix(.26458 0 0 .26458 8.813 5.715)"/></g><text xml:space="preserve" style="font-style:normal;font-weight:400;font-size:4.23335px;line-height:1.25;font-family:sans-serif;fill:#000;fill-opacity:1;stroke:none;stroke-width:.264585" x="9.933" y="12.248"><tspan style="font-style:normal;font-variant:normal;font-weight:700;font-stretch:normal;font-size:4.23335px;font-family:Ubuntu;-inkscape-font-specification:'Ubuntu Bold';stroke-width:.264585" x="9.933" y="12.248">JS</tspan></text><path style="fill:#fff;fill-opacity:1;stroke:#fff;stroke-width:.0993785;stroke-miterlimit:4;stroke-dasharray:none;stroke-opacity:1" d="m12.091 20.526-1.677-.648v-4.426l.634.624c.348.344.711.665.807.713.095.05.321.1.502.112.463.033.752-.073 1.131-.417l.305-.275v2.488c0 1.369-.006 2.486-.012 2.483l-1.69-.654z"/></g></svg>